<svg viewBox="90 30 1000 340" xmlns="http://www.w3.org/2000/svg" role="img" aria-label="MiNT">
  <path d="M 800,150 L 800,203 L 861,204 L 861,342 L 929,343 L 929,204 L 992,203 L 992,150 Z" fill="#162E2B"/>
  <path d="M 562,150 L 562,343 L 628,343 L 629,250 L 631,250 L 642,261 L 714,343 L 779,342 L 779,150 L 714,150 L 713,245 L 707,241 L 631,150 Z" fill="#162E2B"/>
  <path d="M 153,150 L 153,343 L 222,343 L 223,251 L 228,254 L 286,343 L 298,342 L 357,251 L 360,252 L 360,343 L 429,343 L 429,150 L 348,150 L 293,234 L 289,233 L 235,150 Z" fill="#162E2B"/>
  <path d="M 463,175 L 463,343 L 528,344 L 529,176 L 526,174 Z" fill="#56AE87"/>
  <path d="M 542,66 L 512,75 L 494,85 L 484,95 L 478,104 L 473,119 L 471,144 L 473,149 L 509,138 L 518,133 L 529,123 L 536,111 L 541,96 L 543,81 Z" fill="#56AE87"/>
</svg>
